<?xml version="1.0" encoding="UTF-8" standalone="no"?>
<svg width="24px" height="22px" viewBox="0 0 24 22" version="1.1" xmlns="http://www.w3.org/2000/svg" xmlns:xlink="http://www.w3.org/1999/xlink">
    <!-- Generator: sketchtool 40.3 (33839) - http://www.bohemiancoding.com/sketch -->
    <title>D01CA455-5BB4-47F9-ABC3-EEA0D6521DB6</title>
    <desc>Created with sketchtool.</desc>
    <defs></defs>
    <g id="Page-1" stroke="none" stroke-width="1" fill="none" fill-rule="evenodd">
        <g id="UI-kit" transform="translate(-521.000000, -407.000000)" fill="#000000">
            <g id="Filter" transform="translate(521.000000, 407.000000)">
                <path d="M11,0 C9.707983,0 8.605718,0.8442551 8.1875,2 L0,2 L0,4 L8.1875,4 C8.605718,5.155745 9.707983,6 11,6 C12.292017,6 13.394282,5.155745 13.8125,4 L24,4 L24,2 L13.8125,2 C13.394282,0.8442551 12.292017,0 11,0 L11,0 Z M11,2 C11.564129,2 12,2.4358709 12,3 C12,3.5641291 11.564129,4 11,4 C10.435871,4 10,3.5641291 10,3 C10,2.4358709 10.435871,2 11,2 L11,2 Z M18,8 C16.707982,8 15.605718,8.844255 15.1875,10 L0,10 L0,12 L15.1875,12 C15.605718,13.155745 16.707982,14 18,14 C19.292018,14 20.394282,13.155745 20.8125,12 L24,12 L24,10 L20.8125,10 C20.394282,8.844255 19.292018,8 18,8 L18,8 Z M18,10 C18.564128,10 19,10.435872 19,11 C19,11.564128 18.564128,12 18,12 C17.435872,12 17,11.564128 17,11 C17,10.435872 17.435872,10 18,10 L18,10 Z M7,16 C5.7079818,16 4.6057178,16.844255 4.1875,18 L0,18 L0,20 L4.1875,20 C4.6057178,21.155745 5.7079818,22 7,22 C8.292018,22 9.394282,21.155745 9.8125,20 L24,20 L24,18 L9.8125,18 C9.394282,16.844255 8.292018,16 7,16 L7,16 Z M7,18 C7.564128,18 8,18.435872 8,19 C8,19.564128 7.564128,20 7,20 C6.435871,20 6,19.564129 6,19 C6,18.435871 6.435871,18 7,18 L7,18 Z" id="Shape"></path>
            </g>
        </g>
    </g>
</svg>